<?xml version="1.0" encoding="UTF-8"?>
<svg width="143px" height="27px" viewBox="0 0 143 27" version="1.1" xmlns="http://www.w3.org/2000/svg" xmlns:xlink="http://www.w3.org/1999/xlink">
    <!-- Generator: Sketch 53 (72520) - https://sketchapp.com -->
    <title>logo1</title>
    <desc>Created with Sketch.</desc>
    <defs>
        <linearGradient x1="49.9999876%" y1="0%" x2="49.9999876%" y2="100.000048%" id="linearGradient-1">
            <stop stop-color="#2AF598" offset="0%"></stop>
            <stop stop-color="#009EFD" offset="100%"></stop>
        </linearGradient>
    </defs>
    <g id="Flatdash-Dashboard" stroke="none" stroke-width="1" fill="none" fill-rule="evenodd">
        <g id="logo1" fill-rule="nonzero">
            <path d="M39.4921875,8.07128906 L41.9179688,8.07128906 L43.78125,16.3242188 L46.0927734,8.07128906 L48.140625,8.07128906 L50.4785156,16.3242188 L52.3242188,8.07128906 L54.75,8.07128906 L51.8408203,21 L49.4765625,21 L47.0947266,12.6416016 L44.7568359,21 L42.4189453,21 L39.4921875,8.07128906 Z M63.4775391,11.4375 L65.8681641,11.4375 L65.8681641,21 L63.4775391,21 L63.4775391,19.9892578 C63.0087867,20.4345725 62.5385766,20.7553701 62.0668945,20.9516602 C61.5952125,21.1479502 61.0839871,21.2460938 60.5332031,21.2460938 C59.2968688,21.2460938 58.2275436,20.7670946 57.3251953,19.809082 C56.4228471,18.8510694 55.9716797,17.6601634 55.9716797,16.2363281 C55.9716797,14.7597582 56.4081988,13.5498094 57.28125,12.6064453 C58.1543012,11.6630812 59.2148375,11.1914062 60.4628906,11.1914062 C61.0371122,11.1914062 61.5761694,11.2998036 62.0800781,11.5166016 C62.5839869,11.7333995 63.0498025,12.0585916 63.4775391,12.4921875 L63.4775391,11.4375 Z M60.9550781,13.40625 C60.2109338,13.40625 59.5927759,13.6684544 59.1005859,14.1928711 C58.608396,14.7172878 58.3623047,15.3896443 58.3623047,16.2099609 C58.3623047,17.0361369 58.6127905,17.7158176 59.1137695,18.2490234 C59.6147486,18.7822292 60.2314417,19.0488281 60.9638672,19.0488281 C61.7197303,19.0488281 62.3466772,18.7866237 62.8447266,18.262207 C63.3427759,17.7377903 63.5917969,17.0507855 63.5917969,16.2011719 C63.5917969,15.3691365 63.3427759,14.6953151 62.8447266,14.1796875 C62.3466772,13.6640599 61.7168007,13.40625 60.9550781,13.40625 Z M75.3603516,11.4375 L77.7509766,11.4375 L77.7509766,19.6289062 C77.7509766,21.2461018 77.4257845,22.4355431 76.7753906,23.1972656 C75.9023394,24.2285208 74.5869229,24.7441406 72.8291016,24.7441406 C71.8915969,24.7441406 71.1035188,24.6269543 70.4648438,24.3925781 C69.8261687,24.158202 69.2871116,23.8139671 68.8476562,23.3598633 C68.4082009,22.9057594 68.0830089,22.3535189 67.8720703,21.703125 L70.5175781,21.703125 C70.7519543,21.9726576 71.0537091,22.1762688 71.4228516,22.3139648 C71.791994,22.4516608 72.2285131,22.5205078 72.7324219,22.5205078 C73.3769563,22.5205078 73.8955058,22.4208994 74.2880859,22.2216797 C74.680666,22.0224599 74.9575187,21.76465 75.1186523,21.4482422 C75.279786,21.1318344 75.3603516,20.5869179 75.3603516,19.8134766 C74.9384745,20.2353537 74.4960961,20.5385733 74.0332031,20.7231445 C73.5703102,20.9077158 73.0459014,21 72.4599609,21 C71.1767514,21 70.0927779,20.537114 69.2080078,19.6113281 C68.3232378,18.6855422 67.8808594,17.513679 67.8808594,16.0957031 C67.8808594,14.5781174 68.3496047,13.3593796 69.2871094,12.4394531 C70.136723,11.6074177 71.1503847,11.1914062 72.328125,11.1914062 C72.878909,11.1914062 73.3989233,11.2924795 73.8881836,11.4946289 C74.3774439,11.6967784 74.8681616,12.0292946 75.3603516,12.4921875 L75.3603516,11.4375 Z M72.8730469,13.4326172 C72.1171837,13.4326172 71.4931665,13.6860326 71.0009766,14.1928711 C70.5087866,14.6997096 70.2626953,15.3369102 70.2626953,16.1044922 C70.2626953,16.9013712 70.5146459,17.554685 71.0185547,18.0644531 C71.5224635,18.5742213 72.1552696,18.8291016 72.9169922,18.8291016 C73.6611365,18.8291016 74.2748999,18.5800806 74.7583008,18.0820312 C75.2417016,17.5839819 75.4833984,16.9306681 75.4833984,16.1220703 C75.4833984,15.3251913 75.2402368,14.6777369 74.7539062,14.1796875 C74.2675757,13.6816381 73.6406288,13.4326172 72.8730469,13.4326172 Z M84.6679688,11.1914062 C85.570317,11.1914062 86.4184531,11.4169899 87.2124023,11.8681641 C88.0063516,12.3193382 88.6259743,12.9316368 89.0712891,13.7050781 C89.5166038,14.4785195 89.7392578,15.3134721 89.7392578,16.2099609 C89.7392578,17.1123092 89.515139,17.9560508 89.0668945,18.7412109 C88.6186501,19.5263711 88.0078164,20.1401345 87.234375,20.5825195 C86.4609336,21.0249046 85.6084031,21.2460938 84.6767578,21.2460938 C83.3056572,21.2460938 82.1352588,20.7583057 81.1655273,19.7827148 C80.1957959,18.807124 79.7109375,17.6220773 79.7109375,16.2275391 C79.7109375,14.733391 80.2587836,13.4882862 81.3544922,12.4921875 C82.3154345,11.6249957 83.4199156,11.1914062 84.6679688,11.1914062 Z M84.703125,13.4501953 C83.9589807,13.4501953 83.3393579,13.7094701 82.8442383,14.2280273 C82.3491186,14.7465846 82.1015625,15.4101522 82.1015625,16.21875 C82.1015625,17.0507854 82.346189,17.7246068 82.8354492,18.2402344 C83.3247095,18.755862 83.9443322,19.0136719 84.6943359,19.0136719 C85.4443397,19.0136719 86.0683569,18.7529323 86.5664062,18.2314453 C87.0644556,17.7099583 87.3134766,17.0390666 87.3134766,16.21875 C87.3134766,15.3984334 87.0688501,14.7319362 86.5795898,14.2192383 C86.0903296,13.7065404 85.4648476,13.4501953 84.703125,13.4501953 Z M91.6992188,11.4375 L94.0898438,11.4375 L94.0898438,12.4130859 C94.6347683,11.9560524 95.1284158,11.6381845 95.5708008,11.4594727 C96.0131858,11.2807608 96.465818,11.1914062 96.9287109,11.1914062 C97.8779344,11.1914062 98.6835904,11.5224576 99.3457031,12.1845703 C99.9023465,12.7470731 100.180664,13.5790961 100.180664,14.6806641 L100.180664,21 L97.8076172,21 L97.8076172,16.8076172 C97.8076172,15.6650333 97.7563482,14.9062519 97.6538086,14.53125 C97.551269,14.1562481 97.3725599,13.8706065 97.1176758,13.6743164 C96.8627917,13.4780264 96.5478534,13.3798828 96.1728516,13.3798828 C95.686521,13.3798828 95.2690447,13.5424788 94.9204102,13.8676758 C94.5717756,14.1928727 94.3300788,14.6425753 94.1953125,15.2167969 C94.1249996,15.5156265 94.0898438,16.163081 94.0898438,17.1591797 L94.0898438,21 L91.6992188,21 L91.6992188,11.4375 Z M109.567383,7.74609375 L111.958008,7.74609375 L111.958008,21 L109.567383,21 L109.567383,19.9892578 C109.09863,20.4345725 108.62842,20.7553701 108.156738,20.9516602 C107.685056,21.1479502 107.173831,21.2460938 106.623047,21.2460938 C105.386713,21.2460938 104.317387,20.7670946 103.415039,19.809082 C102.512691,18.8510694 102.061523,17.6601634 102.061523,16.2363281 C102.061523,14.7597582 102.498043,13.5498094 103.371094,12.6064453 C104.244145,11.6630812 105.304681,11.1914062 106.552734,11.1914062 C107.126956,11.1914062 107.666013,11.2998036 108.169922,11.5166016 C108.673831,11.7333995 109.139646,12.0585916 109.567383,12.4921875 L109.567383,7.74609375 Z M107.044922,13.40625 C106.300778,13.40625 105.68262,13.6684544 105.19043,14.1928711 C104.69824,14.7172878 104.452148,15.3896443 104.452148,16.2099609 C104.452148,17.0361369 104.702634,17.7158176 105.203613,18.2490234 C105.704592,18.7822292 106.321285,19.0488281 107.053711,19.0488281 C107.809574,19.0488281 108.436521,18.7866237 108.93457,18.262207 C109.43262,17.7377903 109.681641,17.0507855 109.681641,16.2011719 C109.681641,15.3691365 109.43262,14.6953151 108.93457,14.1796875 C108.436521,13.6640599 107.806644,13.40625 107.044922,13.40625 Z M121.450195,11.4375 L123.84082,11.4375 L123.84082,21 L121.450195,21 L121.450195,19.9892578 C120.981443,20.4345725 120.511233,20.7553701 120.039551,20.9516602 C119.567869,21.1479502 119.056643,21.2460938 118.505859,21.2460938 C117.269525,21.2460938 116.2002,20.7670946 115.297852,19.809082 C114.395503,18.8510694 113.944336,17.6601634 113.944336,16.2363281 C113.944336,14.7597582 114.380855,13.5498094 115.253906,12.6064453 C116.126957,11.6630812 117.187494,11.1914062 118.435547,11.1914062 C119.009768,11.1914062 119.548826,11.2998036 120.052734,11.5166016 C120.556643,11.7333995 121.022459,12.0585916 121.450195,12.4921875 L121.450195,11.4375 Z M118.927734,13.40625 C118.18359,13.40625 117.565432,13.6684544 117.073242,14.1928711 C116.581052,14.7172878 116.334961,15.3896443 116.334961,16.2099609 C116.334961,17.0361369 116.585447,17.7158176 117.086426,18.2490234 C117.587405,18.7822292 118.204098,19.0488281 118.936523,19.0488281 C119.692387,19.0488281 120.319333,18.7866237 120.817383,18.262207 C121.315432,17.7377903 121.564453,17.0507855 121.564453,16.2011719 C121.564453,15.3691365 121.315432,14.6953151 120.817383,14.1796875 C120.319333,13.6640599 119.689457,13.40625 118.927734,13.40625 Z M132.120117,12.7734375 L130.634766,14.2587891 C130.031247,13.6611298 129.483401,13.3623047 128.991211,13.3623047 C128.721678,13.3623047 128.510743,13.419433 128.358398,13.5336914 C128.206054,13.6479498 128.129883,13.7900382 128.129883,13.9599609 C128.129883,14.0888678 128.178222,14.207519 128.274902,14.315918 C128.371583,14.4243169 128.61035,14.5722647 128.991211,14.7597656 L129.870117,15.1992188 C130.795903,15.6562523 131.431639,16.1220679 131.777344,16.5966797 C132.123049,17.0712914 132.295898,17.6279265 132.295898,18.2666016 C132.295898,19.1162152 131.98389,19.8251925 131.359863,20.3935547 C130.735837,20.9619169 129.899419,21.2460938 128.850586,21.2460938 C127.456048,21.2460938 126.342778,20.7011773 125.510742,19.6113281 L126.987305,18.0029297 C127.268556,18.3310563 127.598143,18.5961904 127.976074,18.7983398 C128.354006,19.0004893 128.689452,19.1015625 128.982422,19.1015625 C129.29883,19.1015625 129.55371,19.0253914 129.74707,18.8730469 C129.940431,18.7207024 130.037109,18.5449229 130.037109,18.3457031 C130.037109,17.9765607 129.68848,17.6162127 128.991211,17.2646484 L128.182617,16.8603516 C126.635734,16.0810508 125.862305,15.1054746 125.862305,13.9335938 C125.862305,13.1777306 126.153806,12.531741 126.736816,11.9956055 C127.319827,11.45947 128.065425,11.1914062 128.973633,11.1914062 C129.59473,11.1914062 130.179196,11.3276354 130.727051,11.6000977 C131.274905,11.87256 131.739256,12.2636693 132.120117,12.7734375 Z M134.194336,7.74609375 L136.576172,7.74609375 L136.576172,12.4042969 C137.044924,11.999998 137.516599,11.6967784 137.991211,11.4946289 C138.465823,11.2924795 138.946287,11.1914062 139.432617,11.1914062 C140.381841,11.1914062 141.181637,11.519528 141.832031,12.1757812 C142.388675,12.7441435 142.666992,13.5790961 142.666992,14.6806641 L142.666992,21 L140.302734,21 L140.302734,16.8076172 C140.302734,15.7001898 140.250001,14.9501973 140.144531,14.5576172 C140.039062,14.1650371 139.858888,13.8720713 139.604004,13.6787109 C139.34912,13.4853506 139.034182,13.3886719 138.65918,13.3886719 C138.172849,13.3886719 137.755373,13.5498031 137.406738,13.8720703 C137.058104,14.1943375 136.816407,14.6337863 136.681641,15.1904297 C136.611328,15.4775405 136.576172,16.1337839 136.576172,17.1591797 L136.576172,21 L134.194336,21 L134.194336,7.74609375 Z" id="Wagondash-Copy" fill="#FFFFFF"></path>
            <g id="loading-copy" fill="url(#linearGradient-1)">
                <path d="M2.28522599,15.8207245 C1.02517777,15.8207245 0,14.7561493 0,13.4476776 C0,12.1392059 1.02517777,11.0746307 2.28522599,11.0746307 C3.54547257,11.0746307 4.57065034,12.1392059 4.57065034,13.4476776 C4.57065034,14.7561493 3.54547257,15.8207245 2.28522599,15.8207245 Z M12.0359203,5.27364348 C10.6358226,5.27364348 9.49658192,4.09082796 9.49658192,2.63671875 C9.49658192,1.18281558 10.6358226,0 12.0359203,0 C13.436018,0 14.5750603,1.18281558 14.5750603,2.63671875 C14.5750603,4.09082796 13.436018,5.27364348 12.0359203,5.27364348 Z M12.0359203,2.109375 C11.7558214,2.109375 11.5280923,2.34606169 11.5280923,2.63671875 C11.5280923,2.92758179 11.7558214,3.1640625 12.0359203,3.1640625 C12.3158208,3.1640625 12.5437483,2.92758179 12.5437483,2.63671875 C12.5437483,2.34606169 12.3158208,2.109375 12.0359203,2.109375 Z M5.10386974,8.54317473 C4.44587543,8.54317473 3.82735682,8.27723696 3.3621784,7.79397583 C2.89700003,7.31092073 2.64070559,6.66863249 2.64070559,5.98555754 C2.64070559,5.30227661 2.89700003,4.65998843 3.3621784,4.17693328 C3.82735682,3.69387817 4.44587543,3.42773437 5.10386974,3.42773437 C5.76166569,3.42773437 6.38018435,3.69387817 6.84556108,4.17693328 L6.84536272,4.17693328 L6.84556108,4.17693328 C7.3107395,4.65998843 7.56683553,5.30227661 7.56683553,5.98555754 C7.56683553,6.66863249 7.3107395,7.31092073 6.84536272,7.79418181 C6.38018435,8.27723696 5.76166569,8.54317473 5.10386974,8.54317473 Z M5.10386974,5.53731536 C5.03701896,5.53731536 4.90867335,5.55420686 4.79857787,5.66853335 C4.68848233,5.78285979 4.67221594,5.9161377 4.67221594,5.98555754 C4.67221594,6.05497739 4.68848233,6.1882553 4.79857787,6.30237581 C4.90867335,6.4167023 5.03701896,6.43379973 5.10386974,6.43379973 C5.17052216,6.43379973 5.29906613,6.4167023 5.4089633,6.30258179 C5.51905884,6.1882553 5.53552354,6.05497739 5.53552354,5.98555754 C5.53552354,5.9161377 5.51905884,5.78285979 5.40916166,5.66853335 L5.4089633,5.66853335 C5.29906613,5.55420686 5.17052216,5.53731536 5.10386974,5.53731536 Z M19.4250161,8.64864348 C18.6722007,8.64864348 17.9644154,8.34418489 17.4319895,7.79150391 C16.8995636,7.23861694 16.6063723,6.50363159 16.6063723,5.72188567 C16.6063723,4.9401398 16.8995636,4.20515445 17.4319895,3.65226743 C17.9644154,3.09938052 18.6722007,2.79492187 19.4250161,2.79492187 C20.1778314,2.79492187 20.8856167,3.09938052 21.4180425,3.65226743 C21.9502701,4.20515445 22.2434614,4.9401398 22.2434614,5.72188567 C22.2434614,6.50363159 21.9502701,7.23861694 21.4180425,7.79150391 C20.8856167,8.34418489 20.1778314,8.64864348 19.4250161,8.64864348 Z M19.4250161,4.90450286 C19.2147435,4.90450286 19.0171667,4.98937224 18.8683889,5.14386751 C18.7198096,5.29836272 18.6378827,5.5035324 18.6378827,5.72188567 C18.6378827,5.94023894 18.7196112,6.14540862 18.8683889,6.2996979 C19.0171667,6.45419312 19.2147435,6.53926848 19.4250161,6.53926848 C19.6352886,6.53926848 19.8328654,6.45419312 19.9814448,6.29990388 C20.1302225,6.14540862 20.2121495,5.94023894 20.2121495,5.72188567 C20.2121495,5.5035324 20.1302225,5.29836272 19.9814448,5.14386751 C19.8328654,4.98937224 19.6352886,4.90450286 19.4250161,4.90450286 Z M22.7005066,16.8212357 C21.8552508,16.8212357 21.0099948,16.4871139 20.3664815,15.8188705 C19.0792566,14.4823837 19.0792566,12.3075028 20.3664815,10.9710159 C21.6535081,9.63452913 23.7477035,9.63452913 25.0347301,10.9710159 C26.3217566,12.3075028 26.3217566,14.4823837 25.0347301,15.8188705 C24.3912168,16.4871139 23.5459609,16.8212357 22.7005066,16.8212357 Z M22.7005066,12.0772018 C22.3753777,12.0772018 22.0502487,12.2057419 21.802881,12.462616 C21.3077487,12.9767761 21.3077487,13.8131104 21.802881,14.3272705 C22.2978149,14.8412247 23.1031983,14.8412247 23.5983306,14.3272705 C24.0932646,13.8131104 24.0932646,12.9767761 23.5983306,12.462616 C23.3507645,12.2057419 23.0256355,12.0772018 22.7005066,12.0772018 L22.7005066,12.0772018 Z M19.4504075,25.5751419 C18.5529802,25.5751419 17.6557512,25.2206268 16.9725639,24.5111847 C15.6063875,23.0925064 15.6063875,20.7839355 16.9725639,19.3652572 C18.3387402,17.946373 20.5618763,17.946373 21.9280526,19.3652572 C23.2944273,20.7839355 23.2944273,23.0925064 21.9280526,24.5111847 C21.2450636,25.2206268 20.3476364,25.5751419 19.4504075,25.5751419 L19.4504075,25.5751419 Z M19.4504075,20.4094391 C19.0733055,20.4094391 18.6962035,20.5585785 18.4089633,20.8566513 C17.8348796,21.4530029 17.8348796,22.4232331 18.4089633,23.0195846 C18.9832454,23.6159363 19.9175696,23.6159363 20.4918516,23.0195846 C21.0659353,22.4232331 21.0659353,21.4530029 20.4918516,20.8566513 C20.2046114,20.5585785 19.8275094,20.4094391 19.4504075,20.4094391 Z M4.69740898,23.1499787 C4.13185521,23.1499787 3.56610308,22.9262695 3.13544117,22.4792633 C2.27411725,21.5846329 2.27411725,20.1292877 3.13544117,19.2348633 C3.99676504,18.3404388 5.39825128,18.3404388 6.2595752,19.2348633 C7.12089907,20.1292877 7.12089907,21.5846329 6.2595752,22.4790573 C5.82891324,22.9262695 5.26316111,23.1499787 4.69740898,23.1499787 Z M10.6645863,27 C10.2743919,27 9.8843959,26.8459167 9.58743555,26.5375443 C8.99331646,25.9205933 8.99331646,24.9167862 9.58723714,24.3000412 L9.58743555,24.2998352 C10.1813562,23.6830902 11.1480148,23.6830902 11.7419355,24.2998352 C12.3360546,24.9167862 12.3360546,25.9205933 11.7421339,26.5373382 C11.4449752,26.8457108 11.0547807,27 10.6645863,27 L10.6645863,27 Z" id="Shape"></path>
            </g>
        </g>
    </g>
</svg>