<svg xmlns="http://www.w3.org/2000/svg" width="26" height="27" viewBox="0 0 26 27">
    <defs>
        <linearGradient id="a" x1="50%" x2="50%" y1="0%" y2="100%">
            <stop offset="0%" stop-color="#2AF598"/>
            <stop offset="100%" stop-color="#009EFD"/>
        </linearGradient>
    </defs>
    <path fill="url(#a)" fill-rule="nonzero" d="M2.285 15.82C1.025 15.82 0 14.757 0 13.449c0-1.309 1.025-2.373 2.285-2.373 1.26 0 2.286 1.064 2.286 2.373 0 1.308-1.026 2.373-2.286 2.373zm9.75-10.546c-1.4 0-2.538-1.183-2.538-2.637S10.636 0 12.036 0c1.4 0 2.54 1.183 2.54 2.637s-1.14 2.637-2.54 2.637zm0-3.165a.518.518 0 0 0-.507.528c0 .29.228.527.508.527s.508-.236.508-.527a.519.519 0 0 0-.508-.528zM5.105 8.543a2.401 2.401 0 0 1-1.742-.749 2.591 2.591 0 0 1-.721-1.808c0-.684.256-1.326.721-1.81a2.402 2.402 0 0 1 1.742-.748c.658 0 1.276.266 1.742.749.465.483.72 1.125.72 1.809 0 .683-.255 1.325-.72 1.808a2.402 2.402 0 0 1-1.742.75zm0-3.006a.42.42 0 0 0-.305.132.456.456 0 0 0-.127.317c0 .069.016.202.127.316a.421.421 0 0 0 .61 0 .456.456 0 0 0 .127-.316.456.456 0 0 0-.127-.317.42.42 0 0 0-.305-.132zM19.425 8.65a2.75 2.75 0 0 1-1.993-.857 2.965 2.965 0 0 1-.826-2.07c0-.782.294-1.517.826-2.07a2.749 2.749 0 0 1 1.993-.857c.753 0 1.46.304 1.993.857.532.553.825 1.288.825 2.07 0 .782-.293 1.517-.825 2.07a2.75 2.75 0 0 1-1.993.857zm0-3.744a.767.767 0 0 0-.557.239.829.829 0 0 0-.23.578c0 .218.082.423.23.578a.768.768 0 0 0 1.113 0 .828.828 0 0 0 .231-.578.828.828 0 0 0-.23-.578.767.767 0 0 0-.557-.24zm3.276 11.916a3.23 3.23 0 0 1-2.335-1.002c-1.287-1.337-1.287-3.511 0-4.848a3.219 3.219 0 0 1 4.669 0c1.287 1.337 1.287 3.511 0 4.848A3.23 3.23 0 0 1 22.7 16.82zm0-4.744c-.326 0-.65.129-.898.386a1.356 1.356 0 0 0 0 1.864c.495.514 1.3.514 1.795 0a1.356 1.356 0 0 0 0-1.864 1.243 1.243 0 0 0-.897-.386zm-3.25 13.498a3.428 3.428 0 0 1-2.478-1.064c-1.367-1.418-1.367-3.727 0-5.146a3.417 3.417 0 0 1 4.955 0c1.366 1.419 1.366 3.728 0 5.146a3.428 3.428 0 0 1-2.478 1.064zm0-5.166c-.378 0-.755.15-1.042.448a1.573 1.573 0 0 0 0 2.163 1.436 1.436 0 0 0 2.083 0 1.573 1.573 0 0 0 0-2.163 1.442 1.442 0 0 0-1.042-.448zM4.696 23.15a2.162 2.162 0 0 1-1.562-.67 2.36 2.36 0 0 1 0-3.245 2.154 2.154 0 0 1 3.125 0 2.36 2.36 0 0 1 0 3.244c-.431.447-.997.671-1.563.671zM10.665 27c-.39 0-.78-.154-1.078-.462a1.627 1.627 0 0 1 0-2.238 1.486 1.486 0 0 1 2.155 0c.594.617.594 1.62 0 2.237a1.491 1.491 0 0 1-1.077.463z"/>
</svg>
